# xmcd
#
# Track frame offsets:
#	150
#	24078
#	45623
#	65670
#	86573
#	111695
#	129960
#	158523
#	181295
#	207045
#
# Disc length: 3057 seconds
#
# Revision: 2
# Processed by: cddbd v1.5.2PL0 Copyright (c) Steve Scherf et al.
# Submitted via: EZCDAudioConverter 8.0.2.1
#
DISCID=7c0bef0a
DTITLE=Various Artist - st. Trần Thiện Thanh. Nối Lại Tình Xưa
DYEAR=1989
DGENRE=Contemporary Pop
TTITLE0=Duy Khánh - Tạ từ trong đêm
TTITLE1=Hương Lan - Hoa học trò
TTITLE2=Si Phu and Ngoc Minh - Trên đỉnh mùa đông
TTITLE3=Thanh Tuyền - Mùa đông của anh
TTITLE4=Ngọc Lan - Nỗi lòng Thanh Trúc
TTITLE5=Tuấn Vũ - Không bao giờ ngăn cách
TTITLE6=Ngọc Minh - Tiếng hát nửa vời
TTITLE7=Vũ Khanh - Gặp nhau làm ngơ
TTITLE8=Julie - Gọi người yêu dấu
TTITLE9=Kiều Nga - Ai nói yêu em đêm này
EXTD=
EXTT0=
EXTT1=
EXTT2=
EXTT3=
EXTT4=
EXTT5=
EXTT6=
EXTT7=
EXTT8=
EXTT9=
PLAYORDER=
